<?xml version="1.0" encoding="UTF-8"?>
<svg width="1200pt" height="1200pt" version="1.1" viewBox="0 0 1200 1200" xmlns="http://www.w3.org/2000/svg">
 <path d="m901.1 1053.4c-126.43 0-228.9-101.77-228.9-227.32 0-125.55 102.48-227.32 228.9-227.32 126.43 0 228.9 101.77 228.9 227.32 0.023438 125.55-102.48 227.32-228.9 227.32zm0-354.38c-70.648 0-127.93 56.875-127.93 127.05 0 70.176 57.273 127.05 127.93 127.05 70.648 0 127.93-56.875 127.93-127.05 0.023437-70.176-57.254-127.05-127.93-127.05zm-14.953-122.73c-13.625-49.801-40.074-94.375-75.625-129.98 19.75-29.773 33.273-63.977 38.727-100.8 37.375 29.801 69.926 66.852 95.352 110.55 25.375 43.625 41.375 90.074 48.699 137.05-28.551-11.148-59.648-17.273-92.176-17.273-5.0508 0-10.023 0.17578-14.977 0.44922zm-286.15-40.125c-126.43 0-228.9-101.77-228.9-227.32s102.47-227.32 228.9-227.32 228.9 101.77 228.9 227.32-102.47 227.32-228.9 227.32zm0-354.38c-70.648 0-127.93 56.875-127.93 127.05s57.273 127.05 127.93 127.05c70.648 0 127.93-56.875 127.93-127.05s-57.277-127.05-127.93-127.05zm-286.15 394.5c-4.9492-0.30078-9.9492-0.44922-14.977-0.44922-32.5 0-63.551 6.125-92.074 17.25 14.949-95.273 64.699-184.48 143.95-247.52 5.4492 36.801 18.977 71 38.727 100.77-35.551 35.574-62 80.148-75.625 129.95zm213.95 249.78c0 125.55-102.48 227.32-228.9 227.32-126.43 0-228.9-101.77-228.9-227.32 0-125.55 102.48-227.32 228.9-227.32 126.42-0.003906 228.9 101.77 228.9 227.32zm-356.85 0c0 70.176 57.273 127.05 127.93 127.05 70.648 0 127.93-56.875 127.93-127.05 0-70.176-57.273-127.05-127.93-127.05-70.648 0-127.93 56.875-127.93 127.05zm353.12 112.3c24.227 6.3516 49.676 9.75 75.926 9.75s51.676-3.4258 75.898-9.7734c16.5 32.574 39.949 61.074 68.426 83.574-94.875 36.801-197.85 35-288.62-0.023438 28.449-22.477 51.902-50.977 68.375-83.527z" fill="#333" fill-rule="evenodd"/>
</svg>
